<svg width="20" height="20" viewBox="0 0 20 20" fill="none" xmlns="http://www.w3.org/2000/svg">
<path d="M9.8501 18.8516C14.8207 18.8516 18.8501 14.8221 18.8501 9.85156C18.8501 4.881 14.8207 0.851562 9.8501 0.851562M9.8501 18.8516C4.87953 18.8516 0.850098 14.8221 0.850098 9.85156C0.850098 4.881 4.87953 0.851562 9.8501 0.851562M9.8501 18.8516C7.67548 18.8516 5.9126 14.8221 5.9126 9.85156C5.9126 4.881 7.67548 0.851562 9.8501 0.851562M9.8501 18.8516C12.0247 18.8516 13.7876 14.8221 13.7876 9.85156C13.7876 4.881 12.0247 0.851562 9.8501 0.851562M2.5376 14.226C4.18642 13.2818 6.92583 12.6641 10.0265 12.6641C13.2625 12.6641 16.1051 13.337 17.7251 14.3516M2.5376 5.47714C4.18642 6.42132 6.92583 7.03906 10.0265 7.03906C13.2625 7.03906 16.1051 6.36616 17.7251 5.35156" stroke="black" stroke-width="1.7"/>
</svg>
