<svg width="29" height="29" viewBox="0 0 29 29" fill="none" xmlns="http://www.w3.org/2000/svg">
<path opacity="0.5" d="M11.2833 19.3195C12.275 22.1419 14.9638 24.1654 18.1252 24.1654C19.5519 24.1654 20.8822 23.7533 22.0037 23.0416L23.5408 23.5539C24.1312 23.7507 24.4268 23.8491 24.623 23.7791C24.7938 23.7182 24.928 23.5838 24.9889 23.413C25.0589 23.2167 24.9608 22.9215 24.764 22.3312L24.2516 20.7941L24.4232 20.5094C25.0291 19.4501 25.3755 18.2232 25.3755 16.9154C25.3755 12.9113 22.1291 9.66536 18.125 9.66536L17.8536 9.67037L17.7167 9.67763M10.8751 19.3321C9.44839 19.3321 8.11795 18.92 6.9963 18.2084L5.45933 18.7207C4.869 18.9175 4.57354 19.0158 4.37726 18.9458C4.20645 18.8849 4.07185 18.7504 4.01094 18.5796C3.94094 18.3833 4.03947 18.0882 4.23625 17.4978L4.74861 15.9607C4.03697 14.8391 3.625 13.5087 3.625 12.082C3.625 8.07797 6.87094 4.83203 10.875 4.83203C14.8791 4.83203 18.125 8.07797 18.125 12.082C18.125 16.0861 14.8791 19.3321 10.8751 19.3321Z" stroke="black" stroke-width="2" stroke-linecap="round" stroke-linejoin="round"/>
</svg>
